<svg width="174" height="36" viewBox="0 0 174 36" fill="none" xmlns="http://www.w3.org/2000/svg">
<path d="M12.52 2.6H30.16C33.1 2.6 35.228 3.272 36.544 4.616C37.888 5.932 38.56 8.06 38.56 11V14.78C38.56 17.104 38.168 18.91 37.384 20.198C36.628 21.486 35.41 22.34 33.73 22.76L38.98 32H30.79L25.96 23.18H20.08V32H12.52V2.6ZM31 11C31 9.32 30.16 8.48 28.48 8.48H20.08V17.3H28.48C30.16 17.3 31 16.46 31 14.78V11ZM66.0585 32H42.7485V2.6H66.0585V8.48H50.3085V14.15H62.6985V20.03H50.3085V26.12H66.0585V32ZM68.5267 25.91C76.1987 26.33 81.3927 26.54 84.1087 26.54C84.7527 26.54 85.2567 26.358 85.6207 25.994C86.0127 25.602 86.2087 25.084 86.2087 24.44V20.66H76.5487C73.6087 20.66 71.4667 20.002 70.1227 18.686C68.8067 17.342 68.1487 15.2 68.1487 12.26V11C68.1487 8.06 68.8067 5.932 70.1227 4.616C71.4667 3.272 73.6087 2.6 76.5487 2.6H91.2907V8.48H78.2287C76.5487 8.48 75.7087 9.32 75.7087 11V11.84C75.7087 13.52 76.5487 14.36 78.2287 14.36H85.7887C88.5327 14.36 90.5487 15.004 91.8367 16.292C93.1247 17.58 93.7687 19.596 93.7687 22.34V24.44C93.7687 27.184 93.1247 29.2 91.8367 30.488C90.5487 31.776 88.5327 32.42 85.7887 32.42C84.3607 32.42 82.8487 32.392 81.2527 32.336L77.3887 32.168C74.5327 32.028 71.5787 31.832 68.5267 31.58V25.91ZM120.855 32H97.5454V2.6H120.855V8.48H105.105V14.15H117.495V20.03H105.105V26.12H120.855V32ZM131.766 26.12H147.096V32H124.206V2.6H131.766V26.12ZM157.605 26.12H172.935V32H150.045V2.6H157.605V26.12Z" fill="black"/>
<path d="M1.3 33.34L1.3 28.94C1.3 28.2213 1.465 27.6933 1.795 27.356C2.11767 27.0187 2.61267 26.85 3.28 26.85C3.72 26.85 4.07933 26.9453 4.358 27.136C4.62933 27.3267 4.82 27.5613 4.93 27.84C5.09133 27.246 5.48733 26.8427 6.118 26.63C6.34533 26.5567 6.60933 26.52 6.91 26.52C7.62867 26.52 8.15667 26.6887 8.494 27.026C8.83133 27.3633 9 27.8913 9 28.61V33.34H1.3ZM6.58 28.5C6.14 28.5 5.92 28.72 5.92 29.16V31.36H7.46V29.16C7.46 28.72 7.24 28.5 6.8 28.5H6.58ZM3.5 28.83C3.06 28.83 2.84 29.05 2.84 29.49L2.84 31.36H4.38V29.49C4.38 29.05 4.16 28.83 3.72 28.83H3.5ZM3.39 20.5804C2.95 20.5804 2.73 20.8004 2.73 21.2404V23.1104C2.73 23.5504 2.95 23.7704 3.39 23.7704H6.91C7.35 23.7704 7.57 23.5504 7.57 23.1104V21.2404C7.57 20.8004 7.35 20.5804 6.91 20.5804H3.39ZM6.91 18.6004C7.68 18.6004 8.241 18.7764 8.593 19.1284C8.93767 19.4731 9.11 20.0304 9.11 20.8004V23.5504C9.11 24.3204 8.93767 24.8814 8.593 25.2334C8.241 25.5781 7.68 25.7504 6.91 25.7504H3.39C2.62 25.7504 2.06267 25.5781 1.718 25.2334C1.366 24.8814 1.19 24.3204 1.19 23.5504L1.19 20.8004C1.19 20.0304 1.366 19.4731 1.718 19.1284C2.06267 18.7764 2.62 18.6004 3.39 18.6004H6.91ZM3.39 12.5453C2.95 12.5453 2.73 12.7653 2.73 13.2053V15.0753C2.73 15.5153 2.95 15.7353 3.39 15.7353H6.91C7.35 15.7353 7.57 15.5153 7.57 15.0753V13.2053C7.57 12.7653 7.35 12.5453 6.91 12.5453H3.39ZM6.91 10.5653C7.68 10.5653 8.241 10.7413 8.593 11.0933C8.93767 11.4379 9.11 11.9953 9.11 12.7653V15.5153C9.11 16.2853 8.93767 16.8463 8.593 17.1983C8.241 17.5429 7.68 17.7153 6.91 17.7153H3.39C2.62 17.7153 2.06267 17.5429 1.718 17.1983C1.366 16.8463 1.19 16.2853 1.19 15.5153L1.19 12.7653C1.19 11.9953 1.366 11.4379 1.718 11.0933C2.06267 10.7413 2.62 10.5653 3.39 10.5653H6.91ZM9 7.48012V9.46012H1.3V7.48012H4.325V6.49012L1.3 4.77412L1.3 2.68412L5.095 4.84012L9 2.69512V4.78512L5.865 6.49012V7.48012H9Z" fill="black"/>
<path d="M1.30078 33.5H173.001" stroke="black"/>
</svg>
