<svg width="124" height="124" viewBox="0 0 124 124" fill="none" xmlns="http://www.w3.org/2000/svg">
<path d="M85.25 23.25C85.25 10.4092 74.8408 0 62 0C49.1592 0 38.75 10.4092 38.75 23.25C38.75 36.0908 49.1592 46.5 62 46.5C74.8408 46.5 85.25 36.0908 85.25 23.25ZM56.5726 58.3914C42.2036 49.5952 18.9294 47.1781 7.21719 46.5121C3.28164 46.2893 0 49.2876 0 53.073V107.032C0 110.503 2.80695 113.397 6.41555 113.584C16.9895 114.138 38.3819 116.17 53.1674 123.617C55.4367 124.76 58.1274 123.203 58.1274 120.743V61.1669C58.125 60.0359 57.5655 58.9993 56.5726 58.3914ZM116.783 46.5121C105.073 47.1757 81.7964 49.5952 67.4298 58.3914C66.4369 58.9993 65.8774 60.077 65.8774 61.208V120.735C65.8774 123.203 68.5754 124.763 70.852 123.617C85.6351 116.177 107.015 114.145 117.587 113.591C121.195 113.402 124.002 110.508 124.002 107.037V53.073C124 49.2876 120.718 46.2893 116.783 46.5121Z" fill="black"/>
</svg>
